<?xml version="1.0" encoding="UTF-8"?><svg id="Layer_1" xmlns="http://www.w3.org/2000/svg" viewBox="0 0 523.48 118.67"><defs><style>.cls-1{font-size:38.25px;}.cls-1,.cls-2,.cls-3{fill:#4a4f54;font-family:Arial-BoldMT, Arial;font-weight:700;}.cls-4{fill:none;}.cls-4,.cls-5,.cls-6,.cls-7{stroke-width:0px;}.cls-2{font-size:22.66px;}.cls-3{font-size:7.95px;}.cls-5{fill:#4f545c;}.cls-6{fill:#fff;}.cls-7{fill:#ffcf01;}</style></defs><path class="cls-7" d="m3.12,34.8L76.69.51c2.7-1.26,5.92-.09,7.18,2.62l34.33,73.56c1.27,2.71.09,5.93-2.61,7.18l-73.57,34.29c-2.71,1.26-5.93.09-7.19-2.61L.51,41.98c-1.26-2.71-.09-5.93,2.61-7.18"/><path class="cls-6" d="m23.74,59.01c0-25.66,20.81-46.47,46.47-46.47s46.47,20.81,46.47,46.47-20.81,46.47-46.47,46.47-46.47-20.81-46.47-46.47"/><path class="cls-5" d="m46.97,27.92s2.18,1.61,3.23,2.23c2.1,1.25,3.25,1.72,3.25,1.72,0,0,2.71-3.37,4.31-5.25,1.52-1.78,4.77-5.32,4.77-5.32,0,0-3.15.15-8.16,2.24-3.65,1.52-7.39,4.38-7.39,4.38m-12.5,15.85h12.28l2.16-4.09c.67-1.27,2.31-4.24,2.31-4.24,0,0-2.75-1.71-3.72-2.23-.97-.52-3.8-2.53-3.8-2.53,0,0-3.23,3.23-5.06,5.73-2.01,2.75-4.17,7.37-4.17,7.37m19.95-7.21s-1.3,2.32-2.09,3.64c-.55.92-1.79,3.57-1.79,3.57h17.35v-4.39s-4.21-.32-6.83-.83c-3.47-.67-6.64-2-6.64-2m2.23-3.2s3.08,1.06,5.36,1.64c3.12.79,5.88.82,5.88.82v-14.73s-3.84,3.29-5.77,5.59c-.95,1.13-5.47,6.69-5.47,6.69m14.89,10.41h17.2s-.53-1.4-1.64-3.57c-.89-1.75-2.08-3.5-2.08-3.5,0,0-3.87,1.34-6.03,1.79-2.16.45-7.44.97-7.44.97v4.31Zm0-7.96s3.01-.25,5.73-.83c2.76-.59,5.58-1.55,5.58-1.55,0,0-2.95-4.52-5.06-6.69-1.81-1.87-6.25-6.03-6.25-6.03v15.1Zm5.51-15.03s3.07,3.58,4.68,5.51c1.82,2.18,4.4,5.79,4.4,5.79,0,0,1.87-.74,3.77-1.75,1.38-.73,3.29-2.19,3.29-2.19,0,0-3.34-2.77-6.99-4.39-3.79-1.68-9.16-2.98-9.16-2.98m15.48,22.99h12.88s-1.41-3.74-3.65-6.84c-2.52-3.49-5.74-6.55-5.74-6.55,0,0-1.44,1.38-3.27,2.46-1.32.77-4.54,2.53-4.54,2.53l2.01,3.8c.59,1.11,2.31,4.61,2.31,4.61m-63.2,3.45s8.2-30.41,40.22-30.41,41.1,30.42,41.1,30.42H29.34Z"/><path class="cls-5" d="m86.2,86.7s-2.6,3.57-3.84,5.13c-2.47,3.1-4.79,5.06-4.79,5.06,0,0,5.31-1.33,8.49-2.75,2.13-.95,6.18-3.65,6.18-3.65,0,0-2.08-1.49-2.83-1.93-.74-.45-3.2-1.86-3.2-1.86m-32.53-.15s-1.93.97-2.98,1.42c-1.04.44-3.43,2.08-3.43,2.08,0,0,2.9,2.23,6.55,4.02,3.65,1.78,8.49,2.68,8.49,2.68,0,0-3.48-3.36-5.06-5.5-.62-.85-3.57-4.69-3.57-4.69m-18.76-11.75s1.99,4.06,3.72,6.69c2.61,3.96,5.29,5.73,5.29,5.73,0,0,2.55-1.69,3.71-2.27,1.5-.75,3.81-2.04,3.81-2.04,0,0-1.49-2.45-2.31-4.02-.82-1.56-1.89-4.07-1.89-4.07l-12.33-.02Zm33.04,0h-17.25s1.18,2.55,1.64,3.41c.75,1.45,2.09,3.42,2.09,3.42,0,0,4.12-1.13,6.7-1.58,3.04-.52,6.84-1.03,6.84-1.03v-4.23Zm.01,8.17s-3.11.23-5.47.7c-2.87.58-5.78,1.54-5.78,1.54,0,0,3.55,4.42,4.91,6.1,2.01,2.47,6.32,6.03,6.32,6.03v-14.36Zm3.5.07v14.52s2.63-1.41,6.48-5.74c2.42-2.72,4.91-6.4,4.91-6.4,0,0-2.67-1.12-5.37-1.7-2.99-.64-6.02-.69-6.02-.69m.08-8.33v4.24s4.22.36,7.49,1.16c2.19.53,6.21,1.89,6.21,1.89,0,0,1.43-2.06,2.31-3.8.69-1.37,1.71-3.49,1.71-3.49h-17.71Zm21.59-.08s-1.71,3.72-2.15,4.39c-.45.67-2.46,4.32-2.46,4.32,0,0,2.9,1.64,3.87,2.24.97.59,3.28,2.23,3.28,2.23,0,0,2.43-1.78,5.43-5.88,2.41-3.29,4.21-7.32,4.21-7.32l-12.18.03Zm-63.53-3.68h80.98s-7.72,30.26-40.88,30.26-40.1-30.26-40.1-30.26"/><polygon class="cls-5" points="41.94 52.55 37.26 52.55 34.63 57.34 34.63 52.55 30.03 52.55 30.03 65.82 34.63 65.82 34.63 62.6 35.7 61.08 37.43 65.82 42.5 65.82 38.93 56.91 41.94 52.55"/><path class="cls-5" d="m56.03,62.68c-.17-.92-.4-2.11-1.15-2.8-.62-.6-1.31-.66-1.86-.73.98-.17,3.01-.51,3.01-3.34,0-1.88-1.02-2.99-3.06-3.19-.51-.06-1-.06-1.54-.06h-7.18v13.26h4.76v-5.39h.35c.49.04.92.08,1.28.75.17.34.23.6.43,1.78l.08.53c.15.81.24,1.35.28,1.45.13.54.27.68.54.88h5c-.45-.45-.51-.69-.81-2.4l-.13-.73Zm-7.03-7.91h.55c.71,0,1.7,0,1.7,1.67,0,1.79-1.01,1.81-1.8,1.82h-.45v-3.5Z"/><path class="cls-5" d="m65.87,61.53l4.24-8.98h-5.03l-1.2,3.59c-.11.39-.17.54-.3,1.07-.13-.47-.17-.62-.32-1.09l-1.26-3.57h-5.19l4.19,8.98v4.29h4.87v-4.29Z"/><polygon class="cls-5" points="78.92 55.33 81.99 55.33 81.99 52.53 71.03 52.53 71.03 55.33 74.06 55.33 74.06 65.81 78.92 65.81 78.92 55.33"/><path class="cls-5" d="m95.68,59.05c.02-3.18-.38-5.56-3.56-6.5-.86-.26-1.74-.34-2.63-.34-6.5,0-6.82,3.74-6.82,7.46s1.04,5.58,3.82,6.24c.79.19,1.56.25,2.35.25,1.14,0,3.72-.06,5.24-1.54,1.56-1.54,1.57-4.06,1.6-5.56m-4.98-.15c0,1.2-.02,2.67-.25,3.65-.07.34-.32,1.28-1.3,1.28-.45,0-.79-.19-1.02-.56-.49-.73-.49-3.06-.49-4.04,0-.58.02-2.14.23-3.16.07-.41.28-1.52,1.37-1.52.51,0,.77.23.96.55.47.77.49,2.82.49,3.81"/><path class="cls-5" d="m110.36,52.55h-4.19l.06,5.82c.02.52.02,1.05.02,1.58-.3-1.13-.35-1.32-.66-2.23l-1.9-5.17h-5.65v13.26h4.27l-.11-5.92c0-.79-.02-1.08-.02-1.52.28.88.38,1.18.68,2.05l1.97,5.39h5.54v-13.26Z"/><path class="cls-4" d="m514.65,56.33l-2.17-3.8h-1.09v3.8h-1.76v-8.89h3.35c2.23,0,3.49.71,3.49,2.63,0,1.63-1.02,2.27-2.34,2.38l2.38,3.88h-1.84Z"/><text class="cls-1" transform="translate(143.66 76.01)"><tspan x="0" y="0">SMART CONCRETE</tspan></text><text class="cls-2" transform="translate(505.37 60.39)"><tspan x="0" y="0">速</tspan></text><text class="cls-3" transform="translate(115.54 44.49)"><tspan x="0" y="0">速</tspan></text><path class="cls-7" d="m3.12,34.8L76.69.51c2.7-1.26,5.92-.09,7.18,2.62l34.33,73.56c1.27,2.71.09,5.93-2.61,7.18l-73.57,34.29c-2.71,1.26-5.93.09-7.19-2.61L.51,41.98c-1.26-2.71-.09-5.93,2.61-7.18"/><path class="cls-6" d="m23.74,59.01c0-25.66,20.81-46.47,46.47-46.47s46.47,20.81,46.47,46.47-20.81,46.47-46.47,46.47-46.47-20.81-46.47-46.47"/><path class="cls-5" d="m46.97,27.92s2.18,1.61,3.23,2.23c2.1,1.25,3.25,1.72,3.25,1.72,0,0,2.71-3.37,4.31-5.25,1.52-1.78,4.77-5.32,4.77-5.32,0,0-3.15.15-8.16,2.24-3.65,1.52-7.39,4.38-7.39,4.38m-12.5,15.85h12.28l2.16-4.09c.67-1.27,2.31-4.24,2.31-4.24,0,0-2.75-1.71-3.72-2.23-.97-.52-3.8-2.53-3.8-2.53,0,0-3.23,3.23-5.06,5.73-2.01,2.75-4.17,7.37-4.17,7.37m19.95-7.21s-1.3,2.32-2.09,3.64c-.55.92-1.79,3.57-1.79,3.57h17.35v-4.39s-4.21-.32-6.83-.83c-3.47-.67-6.64-2-6.64-2m2.23-3.2s3.08,1.06,5.36,1.64c3.12.79,5.88.82,5.88.82v-14.73s-3.84,3.29-5.77,5.59c-.95,1.13-5.47,6.69-5.47,6.69m14.89,10.41h17.2s-.53-1.4-1.64-3.57c-.89-1.75-2.08-3.5-2.08-3.5,0,0-3.87,1.34-6.03,1.79-2.16.45-7.44.97-7.44.97v4.31Zm0-7.96s3.01-.25,5.73-.83c2.76-.59,5.58-1.55,5.58-1.55,0,0-2.95-4.52-5.06-6.69-1.81-1.87-6.25-6.03-6.25-6.03v15.1Zm5.51-15.03s3.07,3.58,4.68,5.51c1.82,2.18,4.4,5.79,4.4,5.79,0,0,1.87-.74,3.77-1.75,1.38-.73,3.29-2.19,3.29-2.19,0,0-3.34-2.77-6.99-4.39-3.79-1.68-9.16-2.98-9.16-2.98m15.48,22.99h12.88s-1.41-3.74-3.65-6.84c-2.52-3.49-5.74-6.55-5.74-6.55,0,0-1.44,1.38-3.27,2.46-1.32.77-4.54,2.53-4.54,2.53l2.01,3.8c.59,1.11,2.31,4.61,2.31,4.61m-63.2,3.45s8.2-30.41,40.22-30.41,41.1,30.42,41.1,30.42H29.34Z"/><path class="cls-5" d="m86.2,86.7s-2.6,3.57-3.84,5.13c-2.47,3.1-4.79,5.06-4.79,5.06,0,0,5.31-1.33,8.49-2.75,2.13-.95,6.18-3.65,6.18-3.65,0,0-2.08-1.49-2.83-1.93-.74-.45-3.2-1.86-3.2-1.86m-32.53-.15s-1.93.97-2.98,1.42c-1.04.44-3.43,2.08-3.43,2.08,0,0,2.9,2.23,6.55,4.02,3.65,1.78,8.49,2.68,8.49,2.68,0,0-3.48-3.36-5.06-5.5-.62-.85-3.57-4.69-3.57-4.69m-18.76-11.75s1.99,4.06,3.72,6.69c2.61,3.96,5.29,5.73,5.29,5.73,0,0,2.55-1.69,3.71-2.27,1.5-.75,3.81-2.04,3.81-2.04,0,0-1.49-2.45-2.31-4.02-.82-1.56-1.89-4.07-1.89-4.07l-12.33-.02Zm33.04,0h-17.25s1.18,2.55,1.64,3.41c.75,1.45,2.09,3.42,2.09,3.42,0,0,4.12-1.13,6.7-1.58,3.04-.52,6.84-1.03,6.84-1.03v-4.23Zm.01,8.17s-3.11.23-5.47.7c-2.87.58-5.78,1.54-5.78,1.54,0,0,3.55,4.42,4.91,6.1,2.01,2.47,6.32,6.03,6.32,6.03v-14.36Zm3.5.07v14.52s2.63-1.41,6.48-5.74c2.42-2.72,4.91-6.4,4.91-6.4,0,0-2.67-1.12-5.37-1.7-2.99-.64-6.02-.69-6.02-.69m.08-8.33v4.24s4.22.36,7.49,1.16c2.19.53,6.21,1.89,6.21,1.89,0,0,1.43-2.06,2.31-3.8.69-1.37,1.71-3.49,1.71-3.49h-17.71Zm21.59-.08s-1.71,3.72-2.15,4.39c-.45.67-2.46,4.32-2.46,4.32,0,0,2.9,1.64,3.87,2.24.97.59,3.28,2.23,3.28,2.23,0,0,2.43-1.78,5.43-5.88,2.41-3.29,4.21-7.32,4.21-7.32l-12.18.03Zm-63.53-3.68h80.98s-7.72,30.26-40.88,30.26-40.1-30.26-40.1-30.26"/><polygon class="cls-5" points="41.94 52.55 37.26 52.55 34.63 57.34 34.63 52.55 30.03 52.55 30.03 65.82 34.63 65.82 34.63 62.6 35.7 61.08 37.43 65.82 42.5 65.82 38.93 56.91 41.94 52.55"/><path class="cls-5" d="m56.03,62.68c-.17-.92-.4-2.11-1.15-2.8-.62-.6-1.31-.66-1.86-.73.98-.17,3.01-.51,3.01-3.34,0-1.88-1.02-2.99-3.06-3.19-.51-.06-1-.06-1.54-.06h-7.18v13.26h4.76v-5.39h.35c.49.04.92.08,1.28.75.17.34.23.6.43,1.78l.08.53c.15.81.24,1.35.28,1.45.13.54.27.68.54.88h5c-.45-.45-.51-.69-.81-2.4l-.13-.73Zm-7.03-7.91h.55c.71,0,1.7,0,1.7,1.67,0,1.79-1.01,1.81-1.8,1.82h-.45v-3.5Z"/><path class="cls-5" d="m65.87,61.53l4.24-8.98h-5.03l-1.2,3.59c-.11.39-.17.54-.3,1.07-.13-.47-.17-.62-.32-1.09l-1.26-3.57h-5.19l4.19,8.98v4.29h4.87v-4.29Z"/><polygon class="cls-5" points="78.92 55.33 81.99 55.33 81.99 52.53 71.03 52.53 71.03 55.33 74.06 55.33 74.06 65.81 78.92 65.81 78.92 55.33"/><path class="cls-5" d="m95.68,59.05c.02-3.18-.38-5.56-3.56-6.5-.86-.26-1.74-.34-2.63-.34-6.5,0-6.82,3.74-6.82,7.46s1.04,5.58,3.82,6.24c.79.19,1.56.25,2.35.25,1.14,0,3.72-.06,5.24-1.54,1.56-1.54,1.57-4.06,1.6-5.56m-4.98-.15c0,1.2-.02,2.67-.25,3.65-.07.34-.32,1.28-1.3,1.28-.45,0-.79-.19-1.02-.56-.49-.73-.49-3.06-.49-4.04,0-.58.02-2.14.23-3.16.07-.41.28-1.52,1.37-1.52.51,0,.77.23.96.55.47.77.49,2.82.49,3.81"/><path class="cls-5" d="m110.36,52.55h-4.19l.06,5.82c.02.52.02,1.05.02,1.58-.3-1.13-.35-1.32-.66-2.23l-1.9-5.17h-5.65v13.26h4.27l-.11-5.92c0-.79-.02-1.08-.02-1.52.28.88.38,1.18.68,2.05l1.97,5.39h5.54v-13.26Z"/><path class="cls-4" d="m514.65,56.33l-2.17-3.8h-1.09v3.8h-1.76v-8.89h3.35c2.23,0,3.49.71,3.49,2.63,0,1.63-1.02,2.27-2.34,2.38l2.38,3.88h-1.84Z"/><text class="cls-1" transform="translate(143.66 76.01)"><tspan x="0" y="0">SMART CONCRETE</tspan></text><text class="cls-2" transform="translate(505.37 60.39)"><tspan x="0" y="0">速</tspan></text><text class="cls-3" transform="translate(115.54 44.49)"><tspan x="0" y="0">速</tspan></text></svg>